<svg height="17" viewBox="0 0 162 17" width="162" xmlns="http://www.w3.org/2000/svg" xmlns:xlink="http://www.w3.org/1999/xlink"><pattern id="a" height="20" patternUnits="userSpaceOnUse" width="20" x="5" y="5"><path d="m0 0v10h20v10h-10v-20z" fill="#e4e4e4"/></pattern><rect fill="url(#a)" height="100%" width="100%"/><path d="m.5.5h161v16h-161z" fill="none" stroke="#d0d7de"/><svg height="15" viewBox="196 492 384 35" width="160" x="1" y="1"><path d="m215.457031 521.90625-11.617187-.066406 6.246094-24.027344 11.214843-.066406c1.140625-.007813 2.125.039062 2.9375.117187.804688.070313 1.613281.246094 2.402344.5.785156.25 1.429687.601563 1.90625 1.035157.480469.414062.867187 1.011718 1.15625 1.738281.277344.707031.4375 1.59375.4375 2.617187-.003906.878906-.15625 1.71875-.46875 2.488282-.316406.757812-.722656 1.410156-1.234375 1.933593-.511719.515625-.96875.9375-1.375 1.25-.417969.304688-.824219.589844-1.261719.835938 1.390625 1.363281 2.089844 2.9375 2.089844 4.671875-.015625.746094-.09375 1.445312-.28125 2.070312-.1875.609375-.414063 1.160156-.6875 1.617188-.273437.445312-.648437.859375-1.136719 1.21875-.507812.332031-.949218.644531-1.375.867187-.433594.203125-.992187.414063-1.6875.582031-.707031.164063-1.28125.289063-1.75.367188-.480468.078125-1.097656.140625-1.890625.183594-.796875.042968-1.398437.066406-1.828125.066406-.425781 0-1.023437 0-1.796875 0zm-1.1875-10.878906-1.496093 5.773437c1.050781.058594 1.625.101563 1.683593.101563.453125-.019532.824219-.007813 1.09375-.015625.253907-.027344.671875-.050781 1.203125-.117188.523438-.085937.96875-.179687 1.3125-.335937.324219-.164063.699219-.355469 1.0625-.601563.363282-.261719.640625-.582031.828125-1.015625.183594-.445312.28125-.941406.28125-1.519531 0-1.628906-1.15625-2.433594-3.46875-2.433594-.742187-.007812-1.5625.054688-2.5.164063zm2.1875-8.441406-1.214843 4.707031c.714843.082031 1.539062.132812 2.433593.132812.765625-.007812 1.488281-.066406 2.15625-.199219.664063-.136718 1.277344-.425781 1.828125-.867187.542969-.453125.828125-1.027344.828125-1.738281-.011719-.5-.09375-.878906-.28125-1.167969-.203125-.304687-.496093-.496094-.921875-.617187-.445312-.140626-.828125-.199219-1.203125-.234376-.382812-.035156-.914062-.050781-1.625-.050781-.242187-.007812-.5625.007813-1 .019531-.445312-.003906-.769531.015626-1 .015626zm-2.585937 24.242187h17.679687l8.53125-34.011719h-35.359375l-8.53125 34.011719zm41.085937-4.921875-11.621093-.066406 6.25-24.027344 11.214843-.066406c1.140625-.007813 2.125.039062 2.933594.117187.808594.070313 1.617187.246094 2.40625.5.78125.25 1.429687.601563 1.90625 1.035157.476563.414062.863281 1.011718 1.15625 1.738281.277344.707031.4375 1.59375.4375 2.617187-.003906.878906-.15625 1.71875-.46875 2.488282-.316406.757812-.722656 1.410156-1.234375 1.933593-.515625.515625-.96875.9375-1.375 1.25-.417969.304688-.828125.589844-1.265625.835938 1.394531 1.363281 2.09375 2.9375 2.09375 4.671875-.015625.746094-.09375 1.445312-.28125 2.070312-.1875.609375-.414063 1.160156-.6875 1.617188-.277344.445312-.648437.859375-1.140625 1.21875-.503906.332031-.945312.644531-1.375.867187-.429688.203125-.988281.414063-1.683594.582031-.707031.164063-1.28125.289063-1.75.367188-.480468.078125-1.097656.140625-1.890625.183594-.796875.042968-1.402343.066406-1.828125.066406-.429687 0-1.027344 0-1.796875 0zm-1.1875-10.878906-1.5 5.773437c1.054688.058594 1.625.101563 1.6875.101563.453125-.019532.824219-.007813 1.09375-.015625.253907-.027344.671875-.050781 1.203125-.117188.523438-.085937.96875-.179687 1.3125-.335937.324219-.164063.699219-.355469 1.0625-.601563.363282-.261719.640625-.582031.828125-1.015625.183594-.445312.28125-.941406.28125-1.519531 0-1.628906-1.15625-2.433594-3.46875-2.433594-.742187-.007812-1.5625.054688-2.5.164063zm2.1875-8.441406-1.21875 4.707031c.71875.082031 1.542969.132812 2.4375.132812.765625-.007812 1.488281-.066406 2.15625-.199219.664063-.136718 1.273438-.425781 1.828125-.867187.542969-.453125.828125-1.027344.828125-1.738281-.011719-.5-.09375-.878906-.28125-1.167969-.203125-.304687-.496093-.496094-.921875-.617187-.445312-.140626-.828125-.199219-1.203125-.234376-.382812-.035156-.917969-.050781-1.625-.050781-.242187-.007812-.5625.007813-1 .019531-.449219-.003906-.769531.015626-1 .015626zm-2.585937 24.242187h17.679687l8.53125-34.011719h-35.359375l-8.535156 34.011719zm46.464844-15.332031h7.933593c-.707031 2.527344-1.34375 4.328125-1.90625 5.371094-1.695312 3.21875-4.640625 5.039062-8.871093 5.441406-.660157.054687-1.332032.097656-2.058594.097656-6.492188 0-9.71875-2.378906-9.71875-7.140625-.011719-1.460937.445312-3.875 1.328125-7.289063.878906-3.417968 1.941406-5.8125 3.171875-7.191406 2.050781-2.363281 5.363281-3.539062 9.902344-3.539062 6.234374-.011719 9.371093 2.449218 9.371093 7.34375-.015625.800781-.15625 1.878906-.46875 3.167968h-7.652343c.394531-1.28125.59375-2.203124.59375-2.800781-.003907-1.820312-.84375-2.703125-2.53125-2.703125-1.808594-.015625-3.082032 1.410156-3.871094 4.238282l-1.71875 6.003906c-.320313 1.078125-.46875 2.035156-.46875 2.835937-.007813.648438.226562 1.179688.6875 1.535157.453125.347656 1.019531.535156 1.6875.535156.625 0 1.214844-.136719 1.714844-.417969.496093-.285156.894531-.582031 1.1875-.917969.28125-.347656.5625-.828125.8125-1.484375.242187-.675781.421874-1.15625.515624-1.5.089844-.363281.214844-.875.359376-1.585937zm-6.96875 15.332031h17.679687l8.535156-34.011719h-35.363281l-8.53125 34.011719zm64.921874-4.988281h-20.210937c1.222656-3.449219 2.863281-6.074219 4.902344-7.875 1-.910156 2.277343-1.796875 3.828125-2.71875 1.542968-.933594 2.867187-1.667969 3.953125-2.234375 1.082031-.585938 2.027343-1.265625 2.839843-2.085938.800782-.832031 1.21875-1.691406 1.21875-2.605469-.007812-.660156-.207031-1.179687-.625-1.601562-.429687-.421875-.925781-.632812-1.527343-.632812-.304688-.019532-.558594.042968-.800781.132812-.257813.085938-.449219.246094-.636719.46875-.1875.210938-.34375.425781-.46875.617188-.125.179687-.25.464843-.375.832031-.136719.351562-.214844.648437-.265625.835937-.054688.1875-.132813.507813-.234375.953125-.105469.4375-.179688.71875-.21875.832031h-7.8125c.484375-2.773437 1.429687-4.863281 2.78125-6.308593 1.949219-2.152344 4.945312-3.203125 8.964843-3.203125 2.863282.011718 5.152344.738281 6.828126 2.152344 1.671874 1.394531 2.515624 3.152343 2.515624 5.222656-.007812 1.101562-.203124 2.101562-.609374 2.972656-.421876.863281-.90625 1.5625-1.5 2.082031-.597657.515625-1.34375 1.007813-2.25 1.453125-.921876.433594-1.75.785156-2.53125 1.019532-.789063.214843-1.679688.511718-2.699219.832031-1.027344.316406-1.835938.605469-2.4375.851562-.890625.335938-1.824219 1-2.84375 1.933594h11.589843zm-11.09375 4.988281h17.679688l8.535156-34.011719h-35.359375l-8.535156 34.011719"/><path d="m414.675781 502.757812c-.230469-2.25-.5-3.285156-1.230469-4.589843-1.316406-2.429688-3.726562-3.828125-6.5-3.828125-6.046874 0-9.636718 6.4375-9.636718 17.148437 0 9.855469 3.273437 15.347657 9.136718 15.347657 2.730469 0 4.59375-.902344 6.273438-3.0625 1.726562-2.203126 2.5-4.679688 2.5-7.832032 0-6.027344-3.363281-10.125-8.316406-10.125-2.820313 0-4.730469 1.261719-6.230469 4.050782.183594-4.003907.636719-6.300782 1.683594-8.460938 1.136719-2.429688 2.636719-3.554688 4.636719-3.554688 2.5 0 3.863281 1.484376 4.453124 4.90625zm-8.046875 6.570313c3.136719 0 5.179688 2.699219 5.179688 6.839844 0 4.230469-2.089844 7.109375-5.179688 7.109375-3.226562 0-5.457031-2.878906-5.457031-7.0625 0-4.230469 2.09375-6.886719 5.457031-6.886719zm15.601563-3.644531c.273437-5.492188 1.863281-7.832032 5.316406-7.832032 3.136719 0 5.183594 2.296876 5.183594 5.894532 0 1.621094-.410157 3.015625-1.183594 4.097656-.589844.855469-1.453125 1.617188-3.632813 3.148438l-3.503906 2.429687c-4.089844 2.925781-5.910156 6.660156-6.136718 12.558594h17.957031v-3.738281h-14.273438c.273438-2.160157 1.910157-4.320313 4.546875-6.074219l2.726563-1.800781c2.863281-1.890626 4.136719-3.015626 5.136719-4.320313 1.273437-1.753906 1.863281-3.734375 1.863281-6.210937 0-5.714844-3.363281-9.496094-8.410157-9.496094-3.136718 0-5.816406 1.488281-7.226562 3.960937-1.136719 1.9375-1.546875 3.734375-1.636719 7.382813zm23.101562-6.75h11.09375v-3.917969h-13.546875l-2 16.96875 2.863282.179687c1.453124-2.117187 2.910156-3.015624 4.863281-3.015624 3.453125 0 5.773437 2.789062 5.773437 6.976562 0 4.320312-2.320312 7.242188-5.683594 7.242188-1.816406 0-3.453124-.761719-4.363281-2.113282-.589843-.855468-.816406-1.621094-1-3.152344h-3.410156c.320313 2.433594.636719 3.558594 1.410156 4.90625 1.453125 2.519532 3.910157 3.828126 7.136719 3.828126 5.726562 0 9.410156-4.320313 9.410156-11.027344 0-5.851563-3.636718-10.171875-8.683594-10.171875-1.910156 0-3.410156.585937-5 1.980469zm32.335938-5.265625h-3.636719v32.3125h17.183594v-3.917969h-13.546875zm21.96875 0h-3.59375v32.3125h3.59375zm24.644531 26.234375-13.5-26.234375h-4.273438v32.3125h3.5v-26.238281l13.726563 26.238281h4.046875v-32.3125h-3.5zm29.96875 2.160156h-16.09375v-10.710938h14.59375v-3.914062h-14.59375v-9.855469h15.820312v-3.914062h-19.457031v32.3125h19.730469zm24.964844-18.945312c-.226563-2.878907-.542969-4.230469-1.363282-5.804688-1.589843-2.882812-4.683593-4.5-8.726562-4.5-3.226562 0-5.683594.988281-7.320312 3.015625-1.40625 1.796875-2.226563 4.230469-2.226563 6.839844 0 4.09375 1.910156 6.703125 5.683594 7.738281l5.5 1.53125c4.410156 1.261719 5.679687 2.476562 5.679687 5.582031 0 3.554688-2.5 5.578125-6.863281 5.578125-3 0-5.226563-1.078125-6.453125-3.148437-.730469-1.214844-1-2.296875-1.046875-4.410157h-3.410156c.046875 3.464844.546875 5.355469 1.957031 7.246094 2.042969 2.832032 4.679688 4.050782 8.773438 4.050782 6.589843 0 10.546874-3.648438 10.546874-9.722657 0-4.589843-2.09375-7.605469-6.09375-8.6875l-7.636718-2.113281c-2.183594-.585938-3.136719-1.890625-3.136719-4.1875 0-3.507812 2.226563-5.578125 6.046875-5.578125 2.5 0 4.5.988281 5.636719 2.746094.636719 1.078125.910156 2.023437 1.042969 3.824219zm0 0"/></svg></svg>