<svg height="122" viewBox="0 0 162 122" width="162" xmlns="http://www.w3.org/2000/svg" xmlns:xlink="http://www.w3.org/1999/xlink"><clipPath id="a"><path d="m35.5 35.5h697v505h-697zm0 0"/></clipPath><pattern id="b" height="20" patternUnits="userSpaceOnUse" width="20" x="5" y="5"><path d="m0 0v10h20v10h-10v-20z" fill="#e4e4e4"/></pattern><rect fill="url(#b)" height="100%" width="100%"/><path d="m.5.5h161v121h-161z" fill="none" stroke="#d0d7de"/><svg height="120" viewBox="0 0 768 576" width="160" x="1" y="1"><path d="m0 0 2396.6875 2396.6875m9891.3125-2396.6875-2396.6875 2396.6875m2396.6875 6819.3125-2396.6875-2396.6875m-9891.3125 2396.6875 2396.6875-2396.6875" fill="none" stroke="#fff" stroke-miterlimit="10" stroke-width="1075.2" transform="matrix(.0625 0 0 -.0625 0 576)"/><g clip-path="url(#a)"><path d="m883.25 1513.4375 630.1875-630.1875" style="fill:none;stroke-width:3120.64;stroke:#000;stroke-dasharray:55.6983;stroke-dashoffset:83.5475;stroke-miterlimit:10" transform="matrix(.0625 0 0 -.0625 0 576)"/><path d="m11404.6875 1513.4375-630.0625-630.1875" style="fill:none;stroke-width:3120.64;stroke:#000;stroke-dasharray:55.6983;stroke-dashoffset:83.5475;stroke-miterlimit:10" transform="matrix(.0625 0 0 -.0625 0 576)"/><path d="m11404.6875 7702.5625-630.0625 630.1875" style="fill:none;stroke-width:3120.64;stroke:#000;stroke-dasharray:55.6983;stroke-dashoffset:83.5475;stroke-miterlimit:10" transform="matrix(.0625 0 0 -.0625 0 576)"/><path d="m883.25 7702.5625 630.1875 630.1875" style="fill:none;stroke-width:3120.64;stroke:#000;stroke-dasharray:55.6983;stroke-dashoffset:83.5475;stroke-miterlimit:10" transform="matrix(.0625 0 0 -.0625 0 576)"/></g></svg></svg>