<svg height="122" viewBox="0 0 162 122" width="162" xmlns="http://www.w3.org/2000/svg" xmlns:xlink="http://www.w3.org/1999/xlink"><clipPath id="a"><path d="m0 0h768v576h-768zm384 288h154.25c0-85.191406-69.058594-154.25-154.25-154.25s-154.25 69.058594-154.25 154.25 69.058594 154.25 154.25 154.25 154.25-69.058594 154.25-154.25zm0 0"/></clipPath><clipPath id="b"><path d="m0 0h768v576h-768zm384 288h154.25c0-85.191406-69.058594-154.25-154.25-154.25s-154.25 69.058594-154.25 154.25 69.058594 154.25 154.25 154.25 154.25-69.058594 154.25-154.25zm-219.125 253.5h438.25v-59h-438.25zm0 0"/></clipPath><clipPath id="c"><path d="m0 0h768v576h-768zm384 288h154.25c0-85.191406-69.058594-154.25-154.25-154.25s-154.25 69.058594-154.25 154.25 69.058594 154.25 154.25 154.25 154.25-69.058594 154.25-154.25zm0 0"/></clipPath><clipPath id="d"><path d="m34.5 289h322.5v255h-322.5zm0 0"/></clipPath><clipPath id="e"><path d="m0 0h768v576h-768zm384 288h154.25c0-85.191406-69.058594-154.25-154.25-154.25s-154.25 69.058594-154.25 154.25 69.058594 154.25 154.25 154.25 154.25-69.058594 154.25-154.25zm-219.125 253.5h438.25v-59h-438.25zm0 0"/></clipPath><clipPath id="f"><path d="m0 0h768v576h-768zm384 288h154.25c0-85.191406-69.058594-154.25-154.25-154.25s-154.25 69.058594-154.25 154.25 69.058594 154.25 154.25 154.25 154.25-69.058594 154.25-154.25zm0 0"/></clipPath><clipPath id="g"><path d="m161 285h190v130h-190zm0 0"/></clipPath><clipPath id="h"><path d="m0 0h768v576h-768zm384 288h154.25c0-85.191406-69.058594-154.25-154.25-154.25s-154.25 69.058594-154.25 154.25 69.058594 154.25 154.25 154.25 154.25-69.058594 154.25-154.25zm-219.125 253.5h438.25v-59h-438.25zm0 0"/></clipPath><clipPath id="i"><path d="m0 0h768v576h-768zm384 288h154.25c0-85.191406-69.058594-154.25-154.25-154.25s-154.25 69.058594-154.25 154.25 69.058594 154.25 154.25 154.25 154.25-69.058594 154.25-154.25zm0 0"/></clipPath><clipPath id="j"><path d="m411 289h322.5v255h-322.5zm0 0"/></clipPath><clipPath id="k"><path d="m0 0h768v576h-768zm384 288h154.25c0-85.191406-69.058594-154.25-154.25-154.25s-154.25 69.058594-154.25 154.25 69.058594 154.25 154.25 154.25 154.25-69.058594 154.25-154.25zm-219.125 253.5h438.25v-59h-438.25zm0 0"/></clipPath><clipPath id="l"><path d="m0 0h768v576h-768zm384 288h154.25c0-85.191406-69.058594-154.25-154.25-154.25s-154.25 69.058594-154.25 154.25 69.058594 154.25 154.25 154.25 154.25-69.058594 154.25-154.25zm0 0"/></clipPath><clipPath id="m"><path d="m417 285h190v130h-190zm0 0"/></clipPath><clipPath id="n"><path d="m0 0h768v576h-768zm384 288h154.25c0-85.191406-69.058594-154.25-154.25-154.25s-154.25 69.058594-154.25 154.25 69.058594 154.25 154.25 154.25 154.25-69.058594 154.25-154.25zm-219.125 253.5h438.25v-59h-438.25zm0 0"/></clipPath><clipPath id="o"><path d="m0 0h768v576h-768zm384 288h154.25c0-85.191406-69.058594-154.25-154.25-154.25s-154.25 69.058594-154.25 154.25 69.058594 154.25 154.25 154.25 154.25-69.058594 154.25-154.25zm0 0"/></clipPath><clipPath id="p"><path d="m411 32h322.5v255h-322.5zm0 0"/></clipPath><clipPath id="q"><path d="m0 0h768v576h-768zm384 288h154.25c0-85.191406-69.058594-154.25-154.25-154.25s-154.25 69.058594-154.25 154.25 69.058594 154.25 154.25 154.25 154.25-69.058594 154.25-154.25zm-219.125 253.5h438.25v-59h-438.25zm0 0"/></clipPath><clipPath id="r"><path d="m0 0h768v576h-768zm384 288h154.25c0-85.191406-69.058594-154.25-154.25-154.25s-154.25 69.058594-154.25 154.25 69.058594 154.25 154.25 154.25 154.25-69.058594 154.25-154.25zm0 0"/></clipPath><clipPath id="s"><path d="m417 161h190v130h-190zm0 0"/></clipPath><clipPath id="t"><path d="m0 0h768v576h-768zm384 288h154.25c0-85.191406-69.058594-154.25-154.25-154.25s-154.25 69.058594-154.25 154.25 69.058594 154.25 154.25 154.25 154.25-69.058594 154.25-154.25zm-219.125 253.5h438.25v-59h-438.25zm0 0"/></clipPath><clipPath id="u"><path d="m0 0h768v576h-768zm384 288h154.25c0-85.191406-69.058594-154.25-154.25-154.25s-154.25 69.058594-154.25 154.25 69.058594 154.25 154.25 154.25 154.25-69.058594 154.25-154.25zm0 0"/></clipPath><clipPath id="v"><path d="m34.5 32h322.5v255h-322.5zm0 0"/></clipPath><clipPath id="w"><path d="m0 0h768v576h-768zm384 288h154.25c0-85.191406-69.058594-154.25-154.25-154.25s-154.25 69.058594-154.25 154.25 69.058594 154.25 154.25 154.25 154.25-69.058594 154.25-154.25zm-219.125 253.5h438.25v-59h-438.25zm0 0"/></clipPath><clipPath id="x"><path d="m0 0h768v576h-768zm384 288h154.25c0-85.191406-69.058594-154.25-154.25-154.25s-154.25 69.058594-154.25 154.25 69.058594 154.25 154.25 154.25 154.25-69.058594 154.25-154.25zm0 0"/></clipPath><clipPath id="y"><path d="m161 161h190v130h-190zm0 0"/></clipPath><clipPath id="z"><path d="m0 0h768v576h-768zm384 288h154.25c0-85.191406-69.058594-154.25-154.25-154.25s-154.25 69.058594-154.25 154.25 69.058594 154.25 154.25 154.25 154.25-69.058594 154.25-154.25zm-219.125 253.5h438.25v-59h-438.25zm0 0"/></clipPath><clipPath id="A"><path d="m0 0h768v576h-768zm384 288h154.25c0-85.191406-69.058594-154.25-154.25-154.25s-154.25 69.058594-154.25 154.25 69.058594 154.25 154.25 154.25 154.25-69.058594 154.25-154.25zm0 0"/></clipPath><pattern id="B" height="20" patternUnits="userSpaceOnUse" width="20" x="5" y="5"><path d="m0 0v10h20v10h-10v-20z" fill="#e4e4e4"/></pattern><rect fill="url(#B)" height="100%" width="100%"/><path d="m.5.5h161v121h-161z" fill="none" stroke="#d0d7de"/><svg height="120" viewBox="0 0 768 576" width="160" x="1" y="1"><g clip-path="url(#a)"><path d="m-76.8-57.6h921.6v691.2h-921.6z" fill="#7f7f7f"/></g><g clip-path="url(#b)"><g clip-path="url(#c)"><path d="m-40 4608h12328" style="fill:none;stroke-width:9216;stroke:#fff;stroke-dasharray:80 944;stroke-dashoffset:512;stroke-miterlimit:10" transform="matrix(.0625 0 0 -.0625 0 576)"/><path d="m6144-552v9768" fill="none" stroke="#fff" stroke-dasharray="80 944" stroke-miterlimit="10" stroke-width="12288" transform="matrix(.0625 0 0 -.0625 0 576)"/></g></g><g clip-path="url(#d)"><g clip-path="url(#e)"><g clip-path="url(#f)"><path d="m0 4556h1484v-460m104 0v460h920v-1944h-2508m0-104h2508v-1956m104 0v1956h2968v-1956m104 0v1956" fill="none" stroke="#000" stroke-miterlimit="10" stroke-width="52" transform="matrix(.0625 0 0 -.0625 0 576)"/></g></g></g><g clip-path="url(#g)"><g clip-path="url(#h)"><g clip-path="url(#i)"><path d="m2612 4620v-2008h2968" fill="none" stroke="#fff" stroke-miterlimit="10" stroke-width="52" transform="matrix(.0625 0 0 -.0625 0 576)"/></g></g></g><g clip-path="url(#j)"><g clip-path="url(#k)"><g clip-path="url(#l)"><path d="m12288 4556h-1484v-460m-104 0v460h-920v-1944h2508m0-104h-2508v-1956m-104 0v1956h-2968v-1956m-104 0v1956" fill="none" stroke="#000" stroke-miterlimit="10" stroke-width="52" transform="matrix(.0625 0 0 -.0625 0 576)"/></g></g></g><g clip-path="url(#m)"><g clip-path="url(#n)"><g clip-path="url(#o)"><path d="m9676 4620v-2008h-2968" fill="none" stroke="#fff" stroke-miterlimit="10" stroke-width="52" transform="matrix(.0625 0 0 -.0625 0 576)"/></g></g></g><g clip-path="url(#p)"><g clip-path="url(#q)"><g clip-path="url(#r)"><path d="m12288 4660h-1484v460m-104 0v-460h-920v1944h2508m0 104h-2508v1956m-104 0v-1956h-2968v1956m-104 0v-1956" fill="none" stroke="#000" stroke-miterlimit="10" stroke-width="52" transform="matrix(.0625 0 0 -.0625 0 576)"/></g></g></g><g clip-path="url(#s)"><g clip-path="url(#t)"><g clip-path="url(#u)"><path d="m9676 4596v2008h-2968" fill="none" stroke="#fff" stroke-miterlimit="10" stroke-width="52" transform="matrix(.0625 0 0 -.0625 0 576)"/></g></g></g><g clip-path="url(#v)"><g clip-path="url(#w)"><g clip-path="url(#x)"><path d="m0 4660h1484v460m104 0v-460h920v1944h-2508m0 104h2508v1956m104 0v-1956h2968v1956m104 0v-1956" fill="none" stroke="#000" stroke-miterlimit="10" stroke-width="52" transform="matrix(.0625 0 0 -.0625 0 576)"/></g></g></g><g clip-path="url(#y)"><g clip-path="url(#z)"><g clip-path="url(#A)"><path d="m2612 4596v2008h2968" fill="none" stroke="#fff" stroke-miterlimit="10" stroke-width="52" transform="matrix(.0625 0 0 -.0625 0 576)"/></g></g></g></svg></svg>