<svg height="122" viewBox="0 0 162 122" width="162" xmlns="http://www.w3.org/2000/svg" xmlns:xlink="http://www.w3.org/1999/xlink"><clipPath id="a"><path d="m36 36h696v504h-696zm0 0"/></clipPath><pattern id="b" height="20" patternUnits="userSpaceOnUse" width="20" x="5" y="5"><path d="m0 0v10h20v10h-10v-20z" fill="#e4e4e4"/></pattern><rect fill="url(#b)" height="100%" width="100%"/><path d="m.5.5h161v121h-161z" fill="none" stroke="#d0d7de"/><svg height="120" viewBox="0 0 768 576" width="160" x="1" y="1"><path d="m0 0 1976.75 1976.75m10311.25-1976.75-1976.6875 1976.75m1976.6875 7239.25-1976.6875-1976.75m-10311.3125 1976.75 1976.75-1976.75" fill="none" stroke="#fff" stroke-miterlimit="10" stroke-width="1126.4" transform="matrix(.0625 0 0 -.0625 0 576)"/><g clip-path="url(#a)"><path d="m673.3125 1303.4375 630.125-630.125" style="fill:none;stroke-width:2539.52;stroke:#000;stroke-dasharray:55.6983;stroke-dashoffset:83.5475;stroke-miterlimit:10" transform="matrix(.0625 0 0 -.0625 0 576)"/><path d="m11614.6875 1303.4375-630.0625-630.125" style="fill:none;stroke-width:2539.52;stroke:#000;stroke-dasharray:55.6983;stroke-dashoffset:83.5475;stroke-miterlimit:10" transform="matrix(.0625 0 0 -.0625 0 576)"/><path d="m11614.6875 7912.5625-630.0625 630.125" style="fill:none;stroke-width:2539.52;stroke:#000;stroke-dasharray:55.6983;stroke-dashoffset:83.5475;stroke-miterlimit:10" transform="matrix(.0625 0 0 -.0625 0 576)"/><path d="m673.3125 7912.5625 630.125 630.125" style="fill:none;stroke-width:2539.52;stroke:#000;stroke-dasharray:55.6983;stroke-dashoffset:83.5475;stroke-miterlimit:10" transform="matrix(.0625 0 0 -.0625 0 576)"/></g></svg></svg>